<svg xmlns="http://www.w3.org/2000/svg" width="86" height="86" viewBox="0 0 86 86" fill="none">
    <path d="M65.6406 86H20.3594C9.12512 86 0 76.8749 0 65.6406V20.3594C0 9.12512 9.12512 0 20.3594 0H65.6406C76.8749 0 86 9.12512 86 20.3594V65.6406C86 76.8749 76.8749 86 65.6406 86Z" fill="url(#paint0_linear_287_2)"/>
    <path d="M59.7869 51.9955C59.7869 51.9955 59.3135 48.2938 56.0852 48.2938H32.7559C31.4216 48.2938 30.1303 47.9925 28.9681 47.3899C25.6968 45.7542 20.6178 41.6652 26.9881 33.9604C26.9881 33.9604 26.9881 38.1356 31.1633 38.1356H54.1913C55.5257 38.1356 56.817 38.4369 57.9791 39.0395C60.7769 40.503 64.5647 44.0756 59.7869 51.9955Z" fill="url(#paint1_linear_287_2)"/>
    <path d="M16.5286 66.8029H56.7308C56.7308 66.8029 62.2833 66.803 66.4154 61.2504C68.8689 57.9361 69.988 53.804 69.2132 49.7579C68.3524 45.4106 65.6407 42.5697 63.6607 40.9341C63.6607 40.9341 67.3624 50.0162 60.6907 54.7079C58.7968 56.0422 56.5155 56.6448 54.1912 56.6448H22.0811L16.5286 66.8029Z" fill="url(#paint2_linear_287_2)"/>
    <path d="M69.4716 19.1968H29.2694C29.2694 19.1968 23.7169 19.1968 19.5847 24.7493C17.1313 28.0636 16.0121 32.1958 16.7869 36.2418C17.6478 40.5892 20.3595 43.43 22.3395 45.0656C22.3395 45.0656 18.6378 35.9836 25.3094 31.2919C27.2033 29.9575 29.4846 29.3549 31.8089 29.3549H63.9191L69.4716 19.1968Z" fill="url(#paint3_linear_287_2)"/>
    <defs>
        <linearGradient id="paint0_linear_287_2" x1="74.6436" y1="85.7521" x2="6.34953" y2="-6.5434" gradientUnits="userSpaceOnUse">
            <stop offset="0.1373" stop-color="#5141DA"/>
            <stop offset="0.2625" stop-color="#5F41D8"/>
            <stop offset="0.4974" stop-color="#823FD1"/>
            <stop offset="0.8141" stop-color="#BC3DC7"/>
            <stop offset="1" stop-color="#E13CC0"/>
        </linearGradient>
        <linearGradient id="paint1_linear_287_2" x1="51.4634" y1="57.0016" x2="34.8054" y2="29.2778" gradientUnits="userSpaceOnUse">
            <stop offset="0.1803" stop-color="white"/>
            <stop offset="1" stop-color="white" stop-opacity="0.5"/>
        </linearGradient>
        <linearGradient id="paint2_linear_287_2" x1="16.5305" y1="53.8544" x2="69.4538" y2="53.8544" gradientUnits="userSpaceOnUse">
            <stop offset="0.1803" stop-color="white"/>
            <stop offset="1" stop-color="white" stop-opacity="0.5"/>
        </linearGradient>
        <linearGradient id="paint3_linear_287_2" x1="16.7026" y1="33.2748" x2="69.2061" y2="26.6223" gradientUnits="userSpaceOnUse">
            <stop offset="0.225" stop-color="white"/>
            <stop offset="1" stop-color="white" stop-opacity="0.5"/>
        </linearGradient>
    </defs>
</svg>
